<?xml version="1.0" encoding="utf-8"?>
<!-- Generator: Adobe Illustrator 26.0.0, SVG Export Plug-In . SVG Version: 6.00 Build 0)  -->
<svg version="1.1" id="Layer_1" xmlns="http://www.w3.org/2000/svg" xmlns:xlink="http://www.w3.org/1999/xlink" x="0px" y="0px"
	 viewBox="0 0 100 100" style="enable-background:new 0 0 100 100;" xml:space="preserve">
<style type="text/css">
	.st0{enable-background:new    ;}
	.st1{fill:#F7F7F9;}
	.st2{fill:#EDCF2E;}
	.st3{fill:none;}
</style>
<g class="st0">
	<path class="st1" d="M8.9,91.9v-9h1.8v7.5h3.6v1.5H8.9z"/>
	<path class="st1" d="M15.3,91.9v-9h1.8v9H15.3z M15.4,81.8v-1.5H17v1.5H15.4z"/>
	<path class="st1" d="M18.8,91.9v-9h2.9l1.8,6l1.8-6h3v9h-1.8v-6.7h-0.2l-1.9,6.5h-1.7l-1.9-6.5h-0.2v6.7H18.8z"/>
	<path class="st1" d="M29.3,91.9l2.3-9h3.2l2.3,9h-1.8l-0.5-1.8h-3.2l-0.5,1.8H29.3z M31.9,88.6h2.6l-1-4.3h-0.6L31.9,88.6z"/>
	<path class="st1" d="M38.1,91.9v-9h2.4l2.9,6.3h0.2v-6.3h1.8v9h-2.4l-2.9-6.5h-0.2v6.5H38.1z"/>
</g>
<g class="st0">
	<path class="st2" d="M55.9,91.9v-7.2h-2.3v-1.7h6.6v1.7H58v7.2H55.9z"/>
	<path class="st2" d="M61.2,91.9v-9h6.1v1.7h-4v1.9h3.3v1.7h-3.3v2h4v1.7H61.2z"/>
	<path class="st2" d="M71.8,92.1c-0.7,0-1.3-0.1-1.8-0.3c-0.5-0.2-0.8-0.5-1.1-0.8c-0.3-0.4-0.5-0.9-0.6-1.4s-0.2-1.3-0.2-2.1
		s0.1-1.5,0.2-2.1s0.3-1.1,0.6-1.4s0.6-0.6,1.1-0.8s1.1-0.3,1.8-0.3c0.3,0,0.6,0,0.9,0c0.3,0,0.6,0.1,0.9,0.1
		c0.3,0.1,0.6,0.1,0.8,0.2l-0.1,1.6c-0.2,0-0.4-0.1-0.6-0.1c-0.3,0-0.5-0.1-0.8-0.1c-0.3,0-0.5,0-0.8,0c-0.4,0-0.7,0-1,0.1
		s-0.4,0.3-0.6,0.5s-0.2,0.5-0.3,0.9c0,0.4-0.1,0.8-0.1,1.4c0,0.5,0,1,0.1,1.4c0,0.4,0.1,0.7,0.3,0.9s0.3,0.4,0.6,0.5
		c0.2,0.1,0.6,0.1,1,0.1c0.4,0,0.7,0,1.2-0.1c0.4,0,0.8-0.1,1-0.1l0,1.6c-0.2,0-0.5,0.1-0.7,0.1c-0.3,0.1-0.6,0.1-1,0.1
		C72.4,92.1,72.1,92.1,71.8,92.1z"/>
	<path class="st2" d="M75.5,91.9v-9.3h2v2.9c0.2-0.1,0.5-0.2,0.8-0.2s0.6-0.1,0.9-0.1c0.6,0,1.1,0.1,1.5,0.3
		c0.3,0.2,0.6,0.6,0.7,1.1c0.1,0.5,0.2,1.1,0.2,1.9v3.5h-2v-3.3c0-0.4,0-0.7-0.1-1c0-0.3-0.1-0.4-0.3-0.6c-0.1-0.1-0.3-0.2-0.6-0.2
		c-0.2,0-0.4,0-0.6,0.1c-0.2,0.1-0.4,0.1-0.5,0.1v4.8H75.5z"/>
</g>
<g>
	<g>
		<path class="st1" d="M79.5,38.3"/>
		<polygon class="st1" points="18.2,11.3 19.4,11.3 19.4,72 78.8,72 78.9,38.3 80.1,38.3 80.1,73.3 18.2,73.3 		"/>
		<path class="st1" d="M74.3,38.3"/>
		<polygon class="st1" points="23.4,11.3 24.6,11.3 24.6,66.8 73.6,66.8 73.6,38.3 74.9,38.3 74.9,68 23.4,68 		"/>
		<path class="st1" d="M69,38.4"/>
		<polygon class="st1" points="28.6,11.3 29.9,11.3 29.9,61.5 68.4,61.5 68.4,38.4 69.7,38.4 69.7,62.8 28.6,62.8 		"/>
		<path class="st1" d="M63.8,38.4"/>
		<polygon class="st1" points="33.8,11.3 35.1,11.3 35.1,56.3 63.2,56.3 63.2,38.4 64.4,38.4 64.4,57.6 33.8,57.6 		"/>
		<path class="st1" d="M57.9,46.5"/>
	</g>
</g>
<line class="st3" x1="80.1" y1="35.4" x2="80.1" y2="36.7"/>
<line class="st3" x1="80.1" y1="30.2" x2="80.1" y2="31.5"/>
<line class="st3" x1="80.1" y1="19.7" x2="80.1" y2="21"/>
<g>
	<g>
		<rect x="62.5" y="35" class="st2" width="19.2" height="1.1"/>
		<rect x="62.5" y="30.4" class="st2" width="19.2" height="1.1"/>
		<rect x="62.5" y="26" class="st2" width="19.2" height="1.1"/>
		<rect x="62.5" y="21.7" class="st2" width="19.2" height="1.1"/>
	</g>
</g>
</svg>
